<?xml version="1.0" encoding="utf-8"?>
<!-- Generator: Adobe Illustrator 16.0.3, SVG Export Plug-In . SVG Version: 6.00 Build 0)  -->
<!DOCTYPE svg PUBLIC "-//W3C//DTD SVG 1.1//EN" "http://www.w3.org/Graphics/SVG/1.1/DTD/svg11.dtd">
<svg version="1.1" id="Layer_1" xmlns="http://www.w3.org/2000/svg" xmlns:xlink="http://www.w3.org/1999/xlink" x="0px" y="0px"
	 width="58.531px" height="49.769px" viewBox="0 0 58.531 49.769" enable-background="new 0 0 58.531 49.769" xml:space="preserve">
<g>
	<path fill="#333333" d="M22.113,28.307c-0.251-0.615-0.887-0.812-1.421-0.422c-0.251,0.183-0.464,0.453-0.613,0.727
		c-0.329,0.606-0.413,1.282-0.445,1.965c-0.041,0.855-0.046,0.855,0.812,0.755c1.095-0.13,1.875-1.017,1.904-2.13
		C22.273,28.902,22.228,28.59,22.113,28.307z"/>
	<path fill="#333333" d="M29.927,23.429c0.586-0.005,0.961-0.354,1.222-0.849c0.377-0.718,0.472-1.498,0.479-2.413
		c-0.008-0.737-0.115-1.569-0.65-2.281c-0.279-0.37-0.646-0.562-1.122-0.542c-0.692,0.031-1.072,0.479-1.294,1.046
		c-0.55,1.402-0.494,2.808,0.123,4.178C28.918,23.089,29.326,23.434,29.927,23.429z"/>
	<path fill="#333333" d="M28.534,38.83c-0.127,0.332-0.045,0.633,0.221,0.839c0.204,0.157,0.456,0.299,0.705,0.343
		c0.761,0.137,1.51,0.033,2.199-0.318c0.265-0.136,0.521-0.351,0.694-0.592c0.254-0.347,0.104-0.736-0.305-0.881
		c-0.226-0.08-0.474-0.097-0.604-0.121c-0.791,0.055-1.466,0.105-2.142,0.146C28.958,38.266,28.669,38.477,28.534,38.83z"/>
	<path fill="#333333" d="M38.828,22.711c0.414,0.599,1.131,0.611,1.633,0.088c0.383-0.398,0.607-0.869,0.601-1.437
		c-0.003-0.4,0-0.801,0-1.202c0-0.39-0.017-0.78,0.005-1.168c0.027-0.486-0.188-0.862-0.512-1.184
		c-0.463-0.462-1.166-0.48-1.605,0.003c-0.244,0.271-0.441,0.617-0.562,0.964c-0.311,0.882-0.282,1.799-0.081,2.696
		C38.403,21.905,38.576,22.35,38.828,22.711z"/>
	<path fill="#333333" d="M21.195,22.569c0.37-0.71,0.469-1.475,0.467-2.262c0-0.901-0.131-1.562-0.429-2.101
		c-0.222-0.401-0.51-0.732-0.982-0.839c-0.659-0.149-1.272,0.166-1.595,0.909c-0.621,1.434-0.559,2.883,0.073,4.298
		c0.225,0.501,0.627,0.853,1.217,0.854C20.547,23.43,20.931,23.077,21.195,22.569z"/>
	<path fill="#333333" d="M8.23,28.406c-0.11,0.334-0.011,0.716,0.322,0.901c0.321,0.179,0.689,0.271,1.01,0.39
		c0.558-0.113,1.076-0.159,1.545-0.333c0.346-0.128,0.682-0.378,0.928-0.657c0.297-0.334,0.104-0.82-0.33-0.948
		c-0.199-0.06-0.417-0.09-0.622-0.081c-0.687,0.032-1.373,0.091-2.06,0.131C8.671,27.83,8.342,28.069,8.23,28.406z"/>
	<path fill="#333333" d="M8.803,18.087c-0.687,1.225-0.687,2.53-0.018,3.759c0.599,1.099,1.913,1.066,2.555-0.008
		c0.342-0.572,0.427-1.207,0.423-1.723c0-0.812-0.082-1.469-0.461-2.052C10.646,17.051,9.392,17.036,8.803,18.087z"/>
	<path fill="#333333" d="M58.337,22.263c-0.434-3.152-1.639-5.998-3.451-8.594c-2.625-3.759-6.085-6.571-10.066-8.771
		c-4.104-2.268-8.486-3.733-13.121-4.423c-1.32-0.197-2.656-0.281-3.984-0.418C27.618,0.046,27.522,0.02,27.425,0
		c-1.025,0-2.051,0-3.076,0c-0.461,0.046-0.922,0.097-1.384,0.135c-3.267,0.267-6.418,1.001-9.394,2.391
		C7.496,5.36,3.475,10.027,1.352,16.355c-0.741,2.206-1.158,4.477-1.287,6.801c-0.007,0.13-0.043,0.26-0.064,0.39
		c0,0.914,0,1.828,0,2.743c0.044,0.417,0.094,0.833,0.134,1.25c0.543,5.564,2.506,10.522,6.341,14.652
		c2.833,3.05,6.313,5.082,10.279,6.293c2.862,0.874,5.794,1.259,8.79,1.282c6.465,0.051,12.557-1.434,18.301-4.355
		c4.238-2.154,7.919-5.01,10.75-8.875c1.905-2.602,3.184-5.477,3.699-8.672c0.076-0.472,0.109-0.95,0.168-1.426
		c0.014-0.117,0.045-0.234,0.068-0.351c0-0.781,0-1.561,0-2.341C58.466,23.253,58.406,22.757,58.337,22.263z M36.597,17.047
		c1.019-1.034,3.082-1.397,4.316-0.398c0.041,0.032,0.088,0.054,0.184,0.112c0-1.38,0.008-2.696-0.006-4.011
		c-0.002-0.274-0.088-0.547-0.118-0.822c-0.026-0.238,0.097-0.345,0.337-0.344c0.602,0.005,1.203-0.004,1.806,0.008
		c0.589,0.012,0.826,0.253,0.829,0.844c0.005,1.539,0.002,3.077,0.002,4.615c0,1.762-0.011,3.523,0.006,5.285
		c0.006,0.44,0.076,0.884,0.16,1.318c0.103,0.54-0.045,0.746-0.598,0.746c-0.379,0.001-0.758,0.002-1.137,0
		c-0.564-0.004-0.826-0.219-0.949-0.774c-0.01-0.042-0.033-0.081-0.053-0.123c-0.139,0.133-0.27,0.263-0.408,0.386
		c-1.318,1.182-3.389,1.056-4.553-0.275C34.899,21.885,35.004,18.664,36.597,17.047z M14.549,17.523
		c-0.217,0.049-0.416,0.171-0.551,0.229c0.186,0.605,0.402,1.131,0.502,1.678c0.307,1.692-0.709,3.245-2.088,3.936
		c-0.763,0.381-1.574,0.517-2.417,0.562c-0.336,0.018-0.684,0.09-0.997,0.21c-0.334,0.129-0.511,0.432-0.499,0.799
		c0.014,0.337,0.23,0.587,0.663,0.639c0.537,0.064,1.084,0.045,1.627,0.042c0.644-0.005,1.288-0.073,1.929-0.038
		c0.854,0.046,1.62,0.342,1.962,1.204c0.362,0.916,0.157,1.781-0.458,2.531c-0.711,0.867-1.694,1.279-2.754,1.521
		c-1.408,0.321-2.821,0.394-4.221-0.03c-0.674-0.203-1.252-0.572-1.447-1.303c-0.192-0.719,0.044-1.336,0.579-1.842
		c0.056-0.052,0.116-0.098,0.188-0.158c-0.573-0.345-0.981-0.781-1.058-1.466C5.426,25.287,5.68,24.657,6.244,24.2
		c0.443-0.359,0.967-0.616,1.451-0.916c-0.043-0.023-0.146-0.077-0.25-0.13c-1.299-0.673-2.039-1.729-2.024-3.202
		c0.016-1.565,0.724-2.744,2.17-3.436c1.291-0.617,3.748-0.695,5.263,0.277c0.458-0.645,1.091-0.945,1.884-0.914
		c0.43,0.017,0.573,0.163,0.577,0.592c0.001,0.034,0,0.067,0.001,0.101C15.317,17.36,15.315,17.35,14.549,17.523z M15.472,21.051
		c-0.293-1.7,0.353-3.09,1.729-4.105c2.046-1.509,5.021-1.055,6.492,0.958c1.781,2.437,0.511,5.849-2.469,6.611
		c-0.417,0.107-0.853,0.138-1.072,0.172C17.69,24.67,15.846,23.217,15.472,21.051z M21.57,33.606
		c0.889,0.049,1.719-0.148,2.519-0.526c0.151-0.072,0.349-0.136,0.499-0.098c0.325,0.08,0.419,0.57,0.154,0.784
		c-1.563,1.267-3.821,1.769-5.701,0.882c-1.966-0.924-2.796-3.07-1.992-5.193c0.981-2.586,3.585-3.735,6.261-2.547
		c1.74,0.771,2.229,2.905,1,4.214c-0.637,0.68-1.485,0.975-2.384,1.087c-0.699,0.088-1.409,0.095-2.108,0.137
		C19.985,33.003,20.76,33.562,21.57,33.606z M25.316,20.37c0.062-1.728,1.115-3.26,2.768-3.952c1.851-0.774,3.966-0.305,5.315,1.181
		c1.641,1.805,1.376,4.55-0.587,6.11c-2.458,1.952-6.28,0.88-7.236-2.041C25.438,21.251,25.401,20.803,25.316,20.37z M35.023,27.919
		c-0.271,0.05-0.535,0.151-0.775,0.223c0.193,0.538,0.418,0.982,0.513,1.452c0.392,1.958-0.685,3.771-2.632,4.41
		c-0.561,0.184-1.177,0.191-1.764,0.301c-0.388,0.072-0.789,0.136-1.147,0.287c-0.35,0.15-0.475,0.514-0.395,0.875
		c0.077,0.344,0.353,0.516,0.655,0.529c0.674,0.029,1.35-0.014,2.026-0.012c0.631,0.002,1.279-0.057,1.894,0.054
		c1.729,0.311,2.002,1.751,1.534,2.994c-0.263,0.696-0.797,1.169-1.426,1.54c-0.838,0.493-1.76,0.738-2.716,0.848
		c-1.042,0.121-2.087,0.133-3.109-0.168c-0.223-0.064-0.44-0.152-0.646-0.26c-1.182-0.619-1.348-2.06-0.342-2.941
		c0.049-0.043,0.1-0.082,0.169-0.143c-0.47-0.274-0.836-0.621-0.998-1.139c-0.248-0.788,0.027-1.68,0.75-2.229
		c0.427-0.325,0.919-0.565,1.38-0.844c-0.153-0.082-0.35-0.175-0.534-0.288c-1.292-0.797-1.88-1.967-1.721-3.467
		c0.165-1.562,1.016-2.649,2.504-3.152c1.639-0.553,3.261-0.49,4.808,0.363c0.025,0.016,0.061,0.02,0.113,0.035
		c0.477-0.676,1.139-0.953,1.959-0.88c0.34,0.03,0.497,0.181,0.514,0.528c0.006,0.122,0.002,0.245,0.002,0.367
		C35.636,27.738,35.554,27.82,35.023,27.919z M45.61,27.426c0.03,0.256-0.13,0.402-0.387,0.456
		c-0.339,0.071-0.673,0.165-1.067,0.264c0.698,1.145,0.896,2.252,0.494,3.401c-0.549,1.572-1.75,2.387-3.34,2.672
		c-0.49,0.089-1.003,0.053-1.49,0.153c-0.297,0.062-0.619,0.216-0.832,0.429c-0.389,0.387-0.229,1.003,0.305,1.132
		c0.467,0.112,0.966,0.122,1.451,0.118c0.678-0.007,1.353-0.09,2.029-0.096c0.317-0.002,0.644,0.07,0.949,0.162
		c1.564,0.469,1.703,2.1,1.047,3.246c-0.291,0.506-0.705,0.898-1.213,1.17c-1.932,1.037-3.963,1.222-6.07,0.656
		c-0.211-0.058-0.416-0.162-0.604-0.277c-1.029-0.638-1.153-1.955-0.271-2.791c0.07-0.066,0.145-0.132,0.215-0.197
		c-0.02-0.029-0.029-0.055-0.045-0.064c-1.285-0.684-1.396-2.438-0.037-3.434c0.389-0.285,0.84-0.482,1.227-0.697
		c-0.354-0.245-0.789-0.475-1.139-0.799c-1.811-1.676-1.399-4.75,0.82-5.876c1.697-0.86,3.447-0.822,5.176-0.021
		c0.091,0.043,0.178,0.094,0.266,0.141c0.01,0.004,0.022,0,0.064,0c0.146-0.148,0.297-0.327,0.473-0.475
		c0.471-0.389,1.031-0.437,1.611-0.385c0.022,0.002,0.047,0.003,0.066,0.012C45.824,26.575,45.568,27.047,45.61,27.426z
		 M52.455,33.97c-0.804,0.864-1.848,1.093-2.932,1.128c-1.34-0.039-2.525-0.42-3.574-1.205c-0.229-0.171-0.312-0.358-0.195-0.631
		c0.131-0.307,0.303-0.388,0.602-0.238c0.831,0.418,1.703,0.646,2.637,0.575c0.248-0.019,0.509-0.08,0.734-0.185
		c0.439-0.204,0.518-0.674,0.137-0.971c-0.326-0.256-0.717-0.437-1.093-0.622c-0.487-0.24-1.007-0.423-1.481-0.685
		c-0.617-0.34-1.066-0.839-1.166-1.574c-0.191-1.429,0.604-2.623,2.029-2.973c1.486-0.364,2.859,0.032,4.155,0.758
		c0.317,0.178,0.311,0.413,0.063,0.906c-0.148,0.291-0.368,0.329-0.641,0.211c-0.686-0.299-1.385-0.486-2.139-0.334
		c-0.257,0.051-0.512,0.118-0.576,0.422c-0.068,0.33,0.091,0.57,0.368,0.715c0.325,0.168,0.671,0.295,0.999,0.454
		c0.598,0.29,1.233,0.528,1.774,0.901C53.314,31.425,53.419,32.935,52.455,33.97z"/>
	<path fill="#333333" d="M38.476,39.148c0.037,0.392,0.304,0.625,0.652,0.774c0.48,0.208,0.981,0.162,1.476,0.093
		c0.623-0.089,1.223-0.26,1.658-0.762c0.368-0.426,0.206-0.946-0.337-1.078c-0.201-0.049-0.416-0.057-0.624-0.082
		c-0.001,0.006-0.001,0.014-0.003,0.02c-0.709,0.045-1.417,0.087-2.125,0.139c-0.094,0.008-0.194,0.057-0.27,0.112
		C38.642,38.559,38.445,38.809,38.476,39.148z"/>
	<path fill="#333333" d="M39.05,28.539c-0.043,0.07-0.081,0.141-0.115,0.213c-0.244,0.504-0.312,1.05-0.302,1.612
		c-0.011,0.429,0.024,0.849,0.146,1.249c0.039,0.133,0.09,0.265,0.151,0.393c0.034,0.074,0.072,0.146,0.114,0.219
		c0.296,0.502,0.719,0.836,1.316,0.826c0.598-0.011,1.043-0.336,1.293-0.861c0.568-1.191,0.591-2.418,0.002-3.596
		C41.074,27.43,39.718,27.424,39.05,28.539z"/>
	<path fill="#333333" d="M30.36,27.732c-0.691-0.007-1.145,0.387-1.383,0.972c-0.214,0.524-0.303,1.101-0.447,1.653
		c0.029,0.008,0.057,0.016,0.084,0.023c0.011,0.605,0.092,1.195,0.377,1.74c0.286,0.551,0.712,0.932,1.355,0.928
		c0.672-0.002,1.13-0.398,1.381-0.989c0.471-1.103,0.479-2.231,0.006-3.333C31.482,28.145,31.051,27.738,30.36,27.732z"/>
</g>
</svg>
