<?xml version="1.0" encoding="utf-8"?>
<!-- Generator: Adobe Illustrator 16.0.3, SVG Export Plug-In . SVG Version: 6.00 Build 0)  -->
<!DOCTYPE svg PUBLIC "-//W3C//DTD SVG 1.1//EN" "http://www.w3.org/Graphics/SVG/1.1/DTD/svg11.dtd">
<svg version="1.1" id="Layer_1" xmlns="http://www.w3.org/2000/svg" xmlns:xlink="http://www.w3.org/1999/xlink" x="0px" y="0px"
	 width="146.379px" height="124.466px" viewBox="0 0 146.379 124.466" enable-background="new 0 0 146.379 124.466"
	 xml:space="preserve">
<g>
	<path fill="#333333" d="M55.302,70.792c-0.629-1.539-2.218-2.032-3.555-1.056c-0.628,0.457-1.16,1.134-1.533,1.817
		c-0.823,1.517-1.033,3.207-1.114,4.914c-0.103,2.139-0.116,2.139,2.032,1.888c2.739-0.325,4.69-2.542,4.762-5.327
		C55.703,72.281,55.59,71.5,55.302,70.792z"/>
	<path fill="#333333" d="M74.845,58.595c1.465-0.015,2.403-0.889,3.055-2.125c0.943-1.795,1.18-3.744,1.199-6.032
		c-0.02-1.844-0.288-3.922-1.626-5.706c-0.698-0.925-1.617-1.406-2.804-1.353c-1.733,0.076-2.682,1.196-3.239,2.613
		c-1.375,3.507-1.234,7.024,0.307,10.451C72.32,57.743,73.34,58.604,74.845,58.595z"/>
	<path fill="#333333" d="M71.359,97.109c-0.317,0.831-0.112,1.583,0.553,2.098c0.509,0.394,1.139,0.748,1.762,0.857
		c1.902,0.342,3.775,0.083,5.5-0.796c0.662-0.34,1.302-0.877,1.736-1.48c0.635-0.866,0.259-1.841-0.762-2.202
		c-0.564-0.2-1.185-0.242-1.512-0.303c-1.976,0.137-3.666,0.264-5.356,0.366C72.422,95.698,71.699,96.226,71.359,97.109z"/>
	<path fill="#333333" d="M97.104,56.797c1.035,1.497,2.828,1.529,4.083,0.22c0.958-0.996,1.52-2.173,1.502-3.592
		c-0.007-1.001,0-2.005,0-3.006c0-0.975-0.041-1.949,0.013-2.921c0.068-1.216-0.469-2.154-1.279-2.96
		c-1.158-1.155-2.917-1.201-4.016,0.01c-0.61,0.677-1.104,1.544-1.404,2.411c-0.776,2.206-0.706,4.501-0.203,6.743
		C96.041,54.78,96.474,55.894,97.104,56.797z"/>
	<path fill="#333333" d="M53.007,56.441c0.926-1.773,1.172-3.688,1.169-5.656c0-2.252-0.327-3.905-1.072-5.251
		c-0.555-1.006-1.276-1.832-2.457-2.1c-1.648-0.374-3.182,0.415-3.988,2.271c-1.553,3.588-1.397,7.212,0.183,10.751
		c0.563,1.253,1.569,2.132,3.043,2.134C51.385,58.595,52.346,57.713,53.007,56.441z"/>
	<path fill="#333333" d="M20.583,71.041c-0.275,0.835-0.028,1.79,0.806,2.254c0.802,0.447,1.724,0.677,2.525,0.975
		c1.395-0.283,2.69-0.398,3.865-0.833c0.866-0.32,1.706-0.945,2.321-1.644c0.742-0.835,0.259-2.052-0.824-2.371
		c-0.497-0.149-1.042-0.225-1.556-0.203c-1.718,0.081-3.434,0.228-5.152,0.327C21.686,69.6,20.863,70.198,20.583,71.041z"/>
	<path fill="#333333" d="M22.015,45.233c-1.718,3.065-1.718,6.328-0.045,9.4c1.498,2.75,4.785,2.667,6.39-0.02
		c0.856-1.431,1.067-3.019,1.058-4.311c0-2.03-0.205-3.676-1.152-5.131C26.623,42.642,23.488,42.603,22.015,45.233z"/>
	<path fill="#333333" d="M145.896,55.676c-1.085-7.883-4.099-15-8.632-21.494c-6.564-9.4-15.218-16.432-25.175-21.934
		C101.827,6.577,90.866,2.911,79.274,1.187c-3.302-0.493-6.641-0.704-9.963-1.045C69.07,0.117,68.829,0.049,68.586,0
		c-2.564,0-5.129,0-7.693,0c-1.154,0.115-2.307,0.244-3.46,0.337c-8.169,0.669-16.051,2.506-23.494,5.979
		C18.746,13.406,8.691,25.077,3.38,40.903C1.528,46.42,0.485,52.099,0.161,57.911C0.144,58.238,0.054,58.563,0,58.888
		c0,2.286,0,4.572,0,6.858c0.111,1.043,0.236,2.086,0.336,3.128c1.358,13.917,6.268,26.316,15.859,36.645
		c7.085,7.627,15.788,12.709,25.706,15.737c7.158,2.187,14.49,3.148,21.983,3.207c16.168,0.127,31.402-3.585,45.768-10.893
		c10.6-5.388,19.805-12.528,26.885-22.195c4.765-6.506,7.962-13.696,9.252-21.688c0.19-1.18,0.273-2.376,0.42-3.565
		c0.034-0.293,0.112-0.586,0.171-0.877c0-1.951,0-3.905,0-5.854C146.218,58.153,146.066,56.912,145.896,55.676z M91.525,42.632
		c2.547-2.586,7.708-3.493,10.795-0.997c0.103,0.081,0.22,0.137,0.459,0.281c0-3.451,0.02-6.743-0.015-10.031
		c-0.005-0.686-0.22-1.368-0.296-2.056c-0.065-0.596,0.242-0.865,0.843-0.86c1.505,0.015,3.009-0.01,4.516,0.02
		c1.473,0.029,2.066,0.635,2.074,2.11c0.012,3.849,0.005,7.698,0.005,11.542c0,4.408-0.027,8.812,0.015,13.217
		c0.015,1.102,0.19,2.213,0.4,3.297c0.256,1.348-0.112,1.866-1.495,1.866c-0.947,0.002-1.895,0.005-2.843,0
		c-1.411-0.01-2.066-0.547-2.374-1.934c-0.024-0.107-0.083-0.203-0.132-0.308c-0.347,0.332-0.674,0.657-1.021,0.964
		c-3.297,2.955-8.475,2.64-11.386-0.686C87.278,54.731,87.542,46.677,91.525,42.632z M36.385,43.824
		c-0.543,0.122-1.04,0.43-1.377,0.571c0.464,1.514,1.006,2.828,1.255,4.196c0.767,4.23-1.774,8.113-5.223,9.842
		c-1.907,0.953-3.937,1.292-6.043,1.404c-0.841,0.047-1.709,0.228-2.492,0.525c-0.836,0.325-1.279,1.08-1.247,1.998
		c0.036,0.845,0.577,1.47,1.657,1.6c1.342,0.158,2.712,0.114,4.07,0.104c1.61-0.012,3.222-0.181,4.824-0.093
		c2.135,0.112,4.052,0.854,4.907,3.009c0.906,2.291,0.393,4.455-1.146,6.331c-1.779,2.168-4.236,3.199-6.889,3.802
		c-3.521,0.804-7.056,0.984-10.557-0.075c-1.685-0.508-3.132-1.432-3.619-3.258c-0.481-1.798,0.11-3.341,1.448-4.606
		c0.139-0.129,0.289-0.244,0.469-0.396c-1.433-0.862-2.453-1.954-2.645-3.668c-0.208-1.871,0.427-3.449,1.839-4.589
		c1.109-0.896,2.418-1.541,3.629-2.289c-0.109-0.059-0.366-0.195-0.624-0.327c-3.25-1.68-5.098-4.323-5.062-8.006
		c0.04-3.917,1.81-6.863,5.427-8.594c3.228-1.543,9.373-1.739,13.163,0.694c1.146-1.612,2.728-2.364,4.712-2.284
		c1.076,0.042,1.434,0.405,1.442,1.48c0.002,0.085,0,0.168,0.002,0.251C38.306,43.414,38.302,43.39,36.385,43.824z M38.693,52.646
		c-0.734-4.252,0.882-7.727,4.324-10.267c5.119-3.773,12.557-2.638,16.237,2.398c4.455,6.091,1.278,14.627-6.174,16.532
		c-1.044,0.266-2.133,0.344-2.68,0.432C44.24,61.697,39.628,58.062,38.693,52.646z M53.944,84.046
		c2.222,0.122,4.299-0.371,6.3-1.316c0.377-0.181,0.872-0.34,1.248-0.244c0.812,0.2,1.048,1.426,0.386,1.961
		c-3.909,3.168-9.556,4.423-14.258,2.205c-4.917-2.31-6.993-7.678-4.981-12.987c2.454-6.468,8.966-9.34,15.658-6.37
		c4.352,1.93,5.574,7.267,2.502,10.539c-1.594,1.699-3.716,2.438-5.961,2.718c-1.748,0.22-3.524,0.237-5.273,0.342
		C49.981,82.536,51.919,83.936,53.944,84.046z M63.313,50.941c0.155-4.32,2.788-8.152,6.921-9.881
		c4.629-1.939,9.919-0.765,13.292,2.95c4.103,4.516,3.44,11.381-1.469,15.284c-6.145,4.879-15.705,2.198-18.097-5.104
		C63.619,53.146,63.526,52.025,63.313,50.941z M87.588,69.822c-0.679,0.124-1.338,0.378-1.938,0.557
		c0.483,1.346,1.045,2.457,1.282,3.632c0.979,4.896-1.712,9.432-6.582,11.029c-1.402,0.459-2.943,0.479-4.411,0.752
		c-0.972,0.181-1.976,0.34-2.871,0.718c-0.875,0.376-1.187,1.285-0.987,2.188c0.192,0.859,0.882,1.29,1.639,1.324
		c1.687,0.073,3.377-0.034,5.066-0.029c1.578,0.005,3.199-0.142,4.735,0.134c4.326,0.776,5.007,4.379,3.837,7.488
		c-0.656,1.741-1.992,2.923-3.565,3.852c-2.096,1.233-4.4,1.846-6.794,2.12c-2.606,0.303-5.22,0.332-7.775-0.421
		c-0.557-0.161-1.102-0.381-1.618-0.649c-2.954-1.548-3.369-5.15-0.854-7.355c0.123-0.108,0.249-0.206,0.424-0.357
		c-1.175-0.686-2.091-1.553-2.495-2.848c-0.619-1.971,0.067-4.2,1.877-5.575c1.067-0.813,2.298-1.414,3.451-2.11
		c-0.384-0.205-0.875-0.438-1.336-0.721c-3.23-1.992-4.702-4.918-4.303-8.67c0.411-3.907,2.54-6.626,6.263-7.884
		c4.101-1.382,8.154-1.226,12.023,0.909c0.063,0.039,0.151,0.049,0.283,0.088c1.191-1.69,2.848-2.384,4.899-2.203
		c0.85,0.078,1.242,0.454,1.284,1.321c0.015,0.305,0.005,0.613,0.005,0.918C89.122,69.37,88.917,69.575,87.588,69.822z
		 M114.065,68.589c0.075,0.64-0.325,1.006-0.968,1.141c-0.848,0.178-1.683,0.412-2.669,0.659c1.746,2.862,2.239,5.632,1.235,8.507
		c-1.372,3.932-4.376,5.969-8.353,6.682c-1.226,0.223-2.508,0.132-3.727,0.384c-0.742,0.153-1.549,0.539-2.081,1.072
		c-0.972,0.967-0.571,2.508,0.762,2.83c1.168,0.281,2.416,0.306,3.63,0.296c1.694-0.018,3.382-0.225,5.075-0.239
		c0.793-0.005,1.609,0.176,2.373,0.405c3.913,1.172,4.26,5.251,2.618,8.118c-0.728,1.265-1.763,2.247-3.033,2.926
		c-4.831,2.594-9.91,3.055-15.181,1.641c-0.527-0.144-1.041-0.405-1.51-0.693c-2.574-1.595-2.884-4.89-0.679-6.979
		c0.176-0.166,0.361-0.33,0.537-0.494c-0.049-0.073-0.073-0.137-0.112-0.161c-3.214-1.709-3.492-6.098-0.093-8.587
		c0.972-0.713,2.101-1.206,3.067-1.743c-0.887-0.613-1.974-1.188-2.848-1.998c-4.528-4.191-3.5-11.879,2.052-14.695
		c4.244-2.151,8.621-2.054,12.944-0.051c0.227,0.107,0.444,0.234,0.664,0.352c0.024,0.01,0.056,0,0.161,0
		c0.366-0.372,0.742-0.818,1.182-1.188c1.178-0.972,2.579-1.094,4.027-0.962c0.059,0.005,0.12,0.01,0.169,0.029
		C114.6,66.462,113.96,67.642,114.065,68.589z M131.183,84.954c-2.01,2.162-4.62,2.733-7.331,2.821
		c-3.352-0.098-6.316-1.051-8.939-3.014c-0.571-0.428-0.781-0.896-0.488-1.578c0.327-0.767,0.757-0.97,1.505-0.596
		c2.078,1.045,4.259,1.614,6.594,1.438c0.62-0.047,1.272-0.2,1.837-0.462c1.099-0.51,1.294-1.685,0.342-2.428
		c-0.815-0.64-1.793-1.091-2.733-1.556c-1.218-0.601-2.518-1.057-3.704-1.712c-1.544-0.85-2.667-2.098-2.916-3.937
		c-0.479-3.573,1.509-6.561,5.074-7.435c3.718-0.911,7.151,0.081,10.393,1.896c0.793,0.444,0.776,1.033,0.158,2.267
		c-0.371,0.728-0.921,0.822-1.602,0.527c-1.715-0.747-3.464-1.217-5.349-0.835c-0.643,0.127-1.28,0.295-1.441,1.055
		c-0.171,0.825,0.228,1.426,0.921,1.788c0.813,0.42,1.678,0.737,2.498,1.136c1.495,0.725,3.085,1.32,4.438,2.254
		C133.332,78.59,133.596,82.365,131.183,84.954z"/>
	<path fill="#333333" d="M96.225,97.906c0.093,0.979,0.759,1.562,1.631,1.937c1.202,0.52,2.455,0.405,3.69,0.231
		c1.559-0.222,3.058-0.649,4.147-1.904c0.92-1.065,0.515-2.367-0.843-2.696c-0.503-0.122-1.041-0.142-1.561-0.205
		c-0.003,0.015-0.003,0.034-0.008,0.049c-1.772,0.112-3.544,0.217-5.314,0.347c-0.234,0.02-0.485,0.142-0.674,0.28
		C96.64,96.431,96.146,97.056,96.225,97.906z"/>
	<path fill="#333333" d="M97.66,71.373c-0.107,0.176-0.202,0.352-0.288,0.532c-0.61,1.261-0.781,2.626-0.755,4.032
		c-0.026,1.072,0.062,2.122,0.364,3.124c0.098,0.332,0.225,0.661,0.378,0.981c0.086,0.186,0.182,0.366,0.286,0.547
		c0.74,1.256,1.798,2.091,3.292,2.066c1.495-0.026,2.608-0.84,3.234-2.154c1.421-2.979,1.477-6.047,0.004-8.992
		C102.721,68.599,99.331,68.584,97.66,71.373z"/>
	<path fill="#333333" d="M75.927,69.355c-1.729-0.017-2.864,0.968-3.46,2.431c-0.535,1.311-0.757,2.752-1.117,4.135
		c0.072,0.02,0.142,0.039,0.211,0.059c0.027,1.514,0.229,2.989,0.944,4.352c0.716,1.378,1.78,2.33,3.39,2.32
		c1.681-0.005,2.826-0.996,3.453-2.474c1.178-2.758,1.197-5.581,0.016-8.336C78.732,70.387,77.655,69.37,75.927,69.355z"/>
</g>
</svg>
