<?xml version="1.0" encoding="utf-8"?>
<!-- Generator: Adobe Illustrator 16.0.3, SVG Export Plug-In . SVG Version: 6.00 Build 0)  -->
<!DOCTYPE svg PUBLIC "-//W3C//DTD SVG 1.1//EN" "http://www.w3.org/Graphics/SVG/1.1/DTD/svg11.dtd">
<svg version="1.1" id="Layer_1" xmlns="http://www.w3.org/2000/svg" xmlns:xlink="http://www.w3.org/1999/xlink" x="0px" y="0px"
	 width="32.001px" height="32px" viewBox="0 0 32.001 32" enable-background="new 0 0 32.001 32" xml:space="preserve">
<g>
	<g>
		<path fill="none" stroke="#333333" stroke-linejoin="round" stroke-miterlimit="10" d="M23.555,5.515
			c0-0.066-0.182-0.12-0.402-0.12H8.854c-0.226,0-0.407,0.054-0.407,0.12V7.52c0,0.065,0.182,0.119,0.407,0.119h14.299
			c0.221,0,0.402-0.054,0.402-0.119V5.515z"/>
		<path fill="none" stroke="#333333" stroke-miterlimit="10" d="M22.144,7.639v1.103c0,0.448,0.026,0.705,0.624,0.705
			c0.885,0-0.176-0.001,0.759-0.001c0.807,0,0.806,0.294,0.806,0.85v14.14c0,0,0.104,0.69-1.768,0.69H9.436
			c-1.87,0-1.768-0.69-1.768-0.69v-14.14c0-0.555-0.001-0.85,0.808-0.85c0.934,0-0.136,0.001,0.748,0.001
			c0.599,0,0.626-0.257,0.626-0.705V7.639"/>
	</g>
	
		<line fill="none" stroke="#333333" stroke-linejoin="round" stroke-miterlimit="10" x1="7.668" y1="13.29" x2="24.332" y2="13.29"/>
	
		<line fill="none" stroke="#333333" stroke-linejoin="round" stroke-miterlimit="10" x1="7.667" y1="21.453" x2="24.332" y2="21.453"/>
</g>
</svg>
