<?xml version="1.0" encoding="utf-8"?>
<!-- Generator: Adobe Illustrator 16.0.3, SVG Export Plug-In . SVG Version: 6.00 Build 0)  -->
<!DOCTYPE svg PUBLIC "-//W3C//DTD SVG 1.1//EN" "http://www.w3.org/Graphics/SVG/1.1/DTD/svg11.dtd">
<svg version="1.1" id="Layer_1" xmlns="http://www.w3.org/2000/svg" xmlns:xlink="http://www.w3.org/1999/xlink" x="0px" y="0px"
	 width="32.001px" height="32px" viewBox="0 0 32.001 32" enable-background="new 0 0 32.001 32" xml:space="preserve">
<g>
	<g>
		<g>
			
				<line fill="none" stroke="#333333" stroke-linecap="round" stroke-linejoin="round" stroke-miterlimit="10" x1="11.638" y1="5.159" x2="11.638" y2="10.544"/>
			
				<line fill="none" stroke="#333333" stroke-linecap="round" stroke-linejoin="round" stroke-miterlimit="10" x1="9.867" y1="5.159" x2="9.867" y2="10.544"/>
		</g>
		<path fill="none" stroke="#333333" stroke-linecap="round" stroke-linejoin="round" stroke-miterlimit="10" d="M11.794,25.953
			c0,0.594-0.481,1.077-1.076,1.077c-0.594,0-1.077-0.482-1.077-1.077v-1.694v-9.752H9.627c-1.516-0.297-1.584-1.198-1.584-2.265
			V5.159h5.416v7.083c0,1.063-0.127,1.962-1.639,2.262l-0.026,0.003v9.752V25.953z"/>
	</g>
	<path fill="none" stroke="#333333" stroke-linejoin="round" stroke-miterlimit="10" d="M20.104,6.047
		c0-0.594,0.482-1.077,1.076-1.077c0.595,0,1.077,0.482,1.077,1.077l-0.034,1.506v10.128h0.012c1.52,0.298,1.585,1.199,1.585,2.266
		l0.139,4.373c0,1.497-1.213,2.709-2.709,2.709c-1.497,0-2.708-1.212-2.708-2.709L18.4,19.948c0-1.064,0.13-1.962,1.641-2.264
		l0.025-0.002V7.553L20.104,6.047z"/>
</g>
</svg>
