<?xml version="1.0" encoding="utf-8"?>
<!-- Generator: Adobe Illustrator 16.0.3, SVG Export Plug-In . SVG Version: 6.00 Build 0)  -->
<!DOCTYPE svg PUBLIC "-//W3C//DTD SVG 1.1//EN" "http://www.w3.org/Graphics/SVG/1.1/DTD/svg11.dtd">
<svg version="1.1" id="Layer_1" xmlns="http://www.w3.org/2000/svg" xmlns:xlink="http://www.w3.org/1999/xlink" x="0px" y="0px"
	 width="32.001px" height="32px" viewBox="0 0 32.001 32" enable-background="new 0 0 32.001 32" xml:space="preserve">
<g>
	<path fill="none" stroke="#333333" stroke-linecap="round" stroke-miterlimit="10" d="M17.651,11.583"/>
	<path fill="none" stroke="#333333" stroke-linecap="round" stroke-miterlimit="10" d="M15.997,7.902c0,0-2.506-3.141-6.069-2.352
		c0,0,0.062,4.264,3.749,4.789c0.631,0.171,0,1.444,0,1.444s-3.784,4.578-3.749,8.385c0.036,3.807,6.076,6.41,6.076,6.41
		s6.033-2.603,6.07-6.41c0.036-3.807-3.661-8.385-3.661-8.385s-0.561-1.168,0-1.444c3.688-0.525,3.661-4.789,3.661-4.789
		C18.51,4.762,15.997,7.902,15.997,7.902z"/>
	<path fill="none" stroke="#333333" stroke-linecap="round" stroke-miterlimit="10" d="M13.931,11.583"/>
	<path fill="none" stroke="#333333" stroke-miterlimit="10" d="M18.946,21.143c0,0.624-0.497,1.122-1.12,1.122
		c-0.615,0-1.118-0.498-1.118-1.122c0-0.616,0.503-1.116,1.118-1.116C18.449,20.026,18.946,20.526,18.946,21.143z"/>
</g>
</svg>
