<?xml version="1.0" encoding="utf-8"?>
<!-- Generator: Adobe Illustrator 16.0.3, SVG Export Plug-In . SVG Version: 6.00 Build 0)  -->
<!DOCTYPE svg PUBLIC "-//W3C//DTD SVG 1.1//EN" "http://www.w3.org/Graphics/SVG/1.1/DTD/svg11.dtd">
<svg version="1.1" id="Layer_1" xmlns="http://www.w3.org/2000/svg" xmlns:xlink="http://www.w3.org/1999/xlink" x="0px" y="0px"
	 width="32.001px" height="32px" viewBox="0 0 32.001 32" enable-background="new 0 0 32.001 32" xml:space="preserve">
<g>
	<path fill="none" stroke="#333333" stroke-linejoin="round" stroke-miterlimit="10" d="M24.699,14.545l-2.757,10.532
		c-0.062,0.269-0.365,0.489-0.673,0.489h-3.296c-0.309,0-0.811,0-1.119,0h-1.129c-0.309,0-0.811,0-1.118,0h-3.297
		c-0.308,0-0.61-0.221-0.673-0.489L7.881,14.545"/>
	<path fill="none" stroke="#333333" stroke-linejoin="round" stroke-miterlimit="10" d="M25.665,13.732
		c0,0.446-0.25,0.812-0.56,0.812H7.475c-0.31,0-0.56-0.366-0.56-0.812v-1.382c0-0.446,0.25-0.812,0.56-0.812h17.631
		c0.31,0,0.56,0.365,0.56,0.812V13.732z"/>
	<path fill="none" stroke="#333333" stroke-linejoin="round" stroke-miterlimit="10" d="M13.97,11.676c0,0-2.685-2.244-1.621-5.03
		c0,0,3.797,0.956,3.266,5.03"/>
	<path fill="none" stroke="#333333" stroke-linejoin="round" stroke-miterlimit="10" d="M17.143,11.401c0,0-2.057-7.197,3.638-8.188
		c0,0,2.038,2.876-1.967,8.188"/>
</g>
</svg>
