<?xml version="1.0" encoding="utf-8"?>
<!-- Generator: Adobe Illustrator 16.0.3, SVG Export Plug-In . SVG Version: 6.00 Build 0)  -->
<!DOCTYPE svg PUBLIC "-//W3C//DTD SVG 1.1//EN" "http://www.w3.org/Graphics/SVG/1.1/DTD/svg11.dtd">
<svg version="1.1" id="Layer_1" xmlns="http://www.w3.org/2000/svg" xmlns:xlink="http://www.w3.org/1999/xlink" x="0px" y="0px"
	 width="32.001px" height="32px" viewBox="0 0 32.001 32" enable-background="new 0 0 32.001 32" xml:space="preserve">
<g>
	<path fill="none" stroke="#333333" stroke-linejoin="round" stroke-miterlimit="10" d="M16.089,10.53
		c-0.336-0.849-0.21-2,0.415-3.027c0.922-1.517,2.586-2.19,3.716-1.502c1.131,0.688,1.299,2.474,0.376,3.991
		c-0.116,0.19-0.242,0.367-0.378,0.529"/>
	<path fill="none" stroke="#333333" stroke-linejoin="round" stroke-miterlimit="10" d="M11.684,10.541
		c-0.217-0.306-0.403-0.653-0.547-1.036c-0.661-1.743-0.192-3.536,1.044-4.004c1.237-0.468,2.775,0.564,3.436,2.308
		c0.368,0.975,0.385,1.966,0.111,2.731"/>
	
		<rect x="7.169" y="10.541" fill="none" stroke="#333333" stroke-linejoin="round" stroke-miterlimit="10" width="17.956" height="15.036"/>
	
		<line fill="none" stroke="#333333" stroke-linejoin="round" stroke-miterlimit="10" x1="7.054" y1="13.333" x2="25.012" y2="13.333"/>
	<g>
		
			<line fill="none" stroke="#333333" stroke-linejoin="round" stroke-miterlimit="10" x1="14.228" y1="10.541" x2="14.228" y2="25.577"/>
		
			<line fill="none" stroke="#333333" stroke-linejoin="round" stroke-miterlimit="10" x1="18.065" y1="10.541" x2="18.065" y2="25.577"/>
	</g>
</g>
</svg>
