<?xml version="1.0" encoding="utf-8"?>
<!-- Generator: Adobe Illustrator 16.0.3, SVG Export Plug-In . SVG Version: 6.00 Build 0)  -->
<!DOCTYPE svg PUBLIC "-//W3C//DTD SVG 1.1//EN" "http://www.w3.org/Graphics/SVG/1.1/DTD/svg11.dtd">
<svg version="1.1" id="Layer_1" xmlns="http://www.w3.org/2000/svg" xmlns:xlink="http://www.w3.org/1999/xlink" x="0px" y="0px"
	 width="32.001px" height="32px" viewBox="0 0 32.001 32" enable-background="new 0 0 32.001 32" xml:space="preserve">
<g>
	<path fill="none" stroke="#333333" stroke-linecap="round" stroke-linejoin="round" stroke-miterlimit="10" d="M22.318,8.416
		v13.807c0,0-4.893-0.261-12.267,0V8.416C16.151,8.667,22.318,8.416,22.318,8.416z"/>
	<path fill="none" stroke="#333333" stroke-linecap="round" stroke-linejoin="round" stroke-miterlimit="10" d="M22.334,22.223
		c0.156,1.905,1.259,4.448,1.259,4.448s-6.685-0.757-14.781,0c0,0,1.034-2.009,1.258-4.448"/>
	<path fill="none" stroke="#333333" stroke-linecap="round" stroke-linejoin="round" stroke-miterlimit="10" d="M10.019,8.416
		C9.862,6.528,8.76,4.01,8.76,4.01s6.685,0.749,14.781,0c0,0-1.034,1.989-1.258,4.405"/>
	
		<rect x="12.705" y="11.168" fill="none" stroke="#333333" stroke-linecap="round" stroke-linejoin="round" stroke-miterlimit="10" width="6.993" height="4.832"/>
	<g>
		
			<line fill="none" stroke="#333333" stroke-linecap="round" stroke-linejoin="round" stroke-miterlimit="10" x1="14.181" y1="6.213" x2="14.181" y2="8.416"/>
		
			<line fill="none" stroke="#333333" stroke-linecap="round" stroke-linejoin="round" stroke-miterlimit="10" x1="17.827" y1="6.213" x2="17.827" y2="8.416"/>
	</g>
	<g>
		
			<line fill="none" stroke="#333333" stroke-linecap="round" stroke-linejoin="round" stroke-miterlimit="10" x1="14.181" y1="22.223" x2="14.181" y2="24.425"/>
		
			<line fill="none" stroke="#333333" stroke-linecap="round" stroke-linejoin="round" stroke-miterlimit="10" x1="17.827" y1="22.223" x2="17.827" y2="24.425"/>
	</g>
</g>
</svg>
